<svg width="32" height="32" viewBox="0 0 32 32" fill="none" xmlns="http://www.w3.org/2000/svg">
<circle cx="16" cy="16" r="16" fill="white"/>
<path d="M24 15.3848C24 14.0677 23.1634 12.9391 22 12.5002C22.4856 11.9562 22.7692 11.2483 22.7692 10.4617C22.7692 8.76237 21.3916 7.38476 19.6923 7.38476C19.4502 7.38476 19.226 7.40816 19 7.46107C18.7424 6.02206 17.5131 4.9226 16 4.92297C14.4869 4.92322 13.2576 6.02267 13 7.46169C12.774 7.40876 12.5499 7.38537 12.3077 7.38537C10.6084 7.38537 9.23078 8.76298 9.23078 10.4623C9.23078 11.2489 9.51442 11.9568 10 12.5008C8.83666 12.9397 8.00001 14.0677 8.00001 15.3848C8.00001 17.0841 9.23078 18.4623 11.0769 18.4623H11.6923L14.1539 22.77V25.8463C14.1539 26.4616 14.7692 27.0771 15.3846 27.0771H16.6154C17.2308 27.0771 17.8462 26.4616 17.8462 25.8463V22.7694L20.3077 18.4623L21.1923 18.444C22.7692 18.4617 24 16.9911 24 15.3849V15.3848ZM14.1539 18.4617H17.8462L16.6154 20.9232H15.3846L14.1539 18.4617Z" fill="#333333"/>
</svg>
