<svg width="32" height="32" viewBox="0 0 32 32" fill="none" xmlns="http://www.w3.org/2000/svg">
<circle cx="16" cy="16" r="16" fill="white"/>
<path d="M22.8897 14.125H9.11034L9.00304 12.1742C8.97194 11.6065 9.18032 11.0657 9.58696 10.6517C9.99361 10.2377 10.5698 9.99998 11.1638 9.99998H20.8362C21.431 9.99998 22.0056 10.2377 22.413 10.6517C22.8205 11.0657 23.0281 11.6065 22.997 12.1742L22.8897 14.125Z" fill="#333333"/>
<path d="M9.15465 14.875L9.62506 23.0515C9.68881 24.1443 10.6382 25 11.7858 25H20.2142C21.3618 25 22.3112 24.1442 22.3749 23.0507L22.8453 14.875H9.15465Z" fill="#333333"/>
<path d="M11.1638 9.25H20.8362C21.0415 9.25 21.2444 9.27175 21.4427 9.31225V8.3125C21.4427 7.58875 20.8323 7 20.082 7H11.918C11.1677 7 10.5573 7.58875 10.5573 8.3125V9.31225C10.7556 9.27175 10.9585 9.25 11.1638 9.25Z" fill="#333333"/>
</svg>
