<svg width="32" height="32" viewBox="0 0 32 32" fill="none" xmlns="http://www.w3.org/2000/svg">
<circle cx="16" cy="16" r="16" fill="white"/>
<path d="M24 15.3847C24 14.0677 23.1633 12.939 22 12.5001C22.4856 11.9561 22.7692 11.2482 22.7692 10.4616C22.7692 8.7623 21.3916 7.3847 19.6923 7.3847C19.4501 7.3847 19.226 7.4081 19 7.46101C18.7424 6.022 17.5131 4.92254 16 4.92291C14.4869 4.92316 13.2576 6.02261 13 7.46163C12.774 7.4087 12.5498 7.38531 12.3077 7.38531C10.6084 7.38531 9.23077 8.76292 9.23077 10.4622C9.23077 11.2488 9.51441 11.9568 10 12.5008C8.83665 12.9397 8 14.0677 8 15.3847C8 17.084 9.23077 18.4622 11.0769 18.4622H11.6923L14.1538 22.7699V25.8462C14.1538 26.4616 14.7692 27.077 15.3846 27.077H16.6154C17.2308 27.077 17.8461 26.4616 17.8461 25.8462V22.7693L20.3077 18.4622L21.1923 18.4439C22.7692 18.4616 24 16.991 24 15.3849V15.3847ZM14.1538 18.4616H17.8461L16.6154 20.9232H15.3846L14.1538 18.4616Z" fill="#333333"/>
</svg>
