<svg width="32" height="32" viewBox="0 0 32 32" fill="none" xmlns="http://www.w3.org/2000/svg">
<circle cx="16" cy="16" r="16" fill="white"/>
<path d="M23.5 17.7892H21.9615V16.5867H19.8462C19.5276 16.5867 19.2693 16.3175 19.2693 15.9855C19.2693 15.6534 19.5276 15.3842 19.8462 15.3842H21.9615V15.1838C21.9615 13.8921 21.5812 12.6914 20.9313 11.6964L19.6715 13.0094C19.5588 13.1268 19.4112 13.1855 19.2636 13.1855C19.1159 13.1855 18.9682 13.1268 18.8556 13.0094C18.6303 12.7746 18.6303 12.3939 18.8556 12.1591L20.1899 10.7686C19.2408 9.79026 17.9791 9.14098 16.5768 9L16.5769 11.1754C16.5769 11.5075 16.3186 11.7766 16 11.7766C15.9004 11.7766 15.8067 11.7504 15.725 11.7041C15.5451 11.6022 15.423 11.4037 15.423 11.1754V9C14.0207 9.14102 12.7591 9.7903 11.8101 10.7686L12.3694 11.3515L13.1443 12.159C13.3696 12.3938 13.3696 12.7745 13.1443 13.0093C13.0316 13.1267 12.884 13.1855 12.7364 13.1855C12.5888 13.1855 12.4411 13.1267 12.3284 13.0093L11.5536 12.2018L11.0686 11.6964C10.4188 12.6913 10.0384 13.892 10.0384 15.1838V15.3842H12.1539C12.4725 15.3842 12.7308 15.6534 12.7308 15.9855C12.7308 16.3175 12.4725 16.5867 12.1539 16.5867H10.0384V17.7892L10.0383 19.9937C10.0383 20.3257 9.77996 20.5949 9.46137 20.5949C9.14277 20.5949 8.88445 20.3257 8.88445 19.9937V17.7892H8.5C7.12148 17.7892 6 18.9579 6 20.3946C6 21.8312 7.12148 23 8.5 23H11.3846C13.3993 23 15.0385 21.2918 15.0385 19.1921V15.1837C15.0385 14.6312 15.4698 14.1817 16 14.1817C16.5302 14.1817 16.9615 14.6312 16.9615 15.1837V19.1921C16.9615 21.2918 18.6006 23 20.6154 23H23.5C24.8785 23 26 21.8312 26 20.3946C26 18.9579 24.8785 17.7892 23.5 17.7892ZM23.8815 20.8547C23.88 20.874 23.8769 20.8936 23.873 20.9129C23.8695 20.9321 23.865 20.9513 23.8595 20.9702C23.8538 20.9886 23.8476 21.0075 23.8403 21.0255C23.833 21.0435 23.825 21.0612 23.8161 21.0784C23.8073 21.096 23.7977 21.1129 23.7873 21.1293C23.7769 21.1453 23.7657 21.1614 23.7538 21.1767C23.7419 21.1919 23.7288 21.2067 23.7157 21.2207C23.7022 21.2344 23.688 21.2481 23.6734 21.2604C23.6588 21.2729 23.6434 21.2845 23.628 21.2953C23.6122 21.3062 23.5961 21.3162 23.5791 21.3254C23.5626 21.3346 23.5457 21.343 23.5284 21.3506C23.5111 21.3582 23.493 21.3647 23.4753 21.3706C23.4572 21.3763 23.4388 21.3811 23.4203 21.385C23.4018 21.3887 23.383 21.3918 23.3641 21.3939C23.3453 21.3959 23.3264 21.3967 23.3076 21.3967C23.2887 21.3967 23.2695 21.3958 23.2507 21.3939C23.2322 21.3919 23.2134 21.3887 23.1949 21.385C23.1764 21.381 23.158 21.3762 23.1399 21.3706C23.1222 21.3646 23.1041 21.3582 23.0868 21.3506C23.0695 21.343 23.0526 21.3346 23.036 21.3254C23.0191 21.3162 23.003 21.3061 22.9872 21.2953C22.9718 21.2845 22.9564 21.2729 22.9418 21.2604C22.9271 21.248 22.913 21.2344 22.8995 21.2207C22.8864 21.2067 22.8733 21.1919 22.8614 21.1767C22.8495 21.1614 22.8383 21.1454 22.8279 21.1293C22.8175 21.1129 22.8079 21.0961 22.7991 21.0784C22.7903 21.0612 22.7822 21.0435 22.7748 21.0255C22.7676 21.0075 22.7614 20.9886 22.7556 20.9702C22.7502 20.9513 22.7456 20.9321 22.7418 20.9129C22.7383 20.8936 22.7353 20.874 22.7333 20.8547C22.7314 20.8351 22.7306 20.8151 22.7306 20.7954C22.7306 20.7758 22.7314 20.7562 22.7333 20.7365C22.7352 20.7169 22.7383 20.6973 22.7418 20.678C22.7456 20.6587 22.7503 20.6395 22.7556 20.621C22.7614 20.6022 22.7676 20.5834 22.7748 20.5653C22.7821 20.5473 22.7902 20.5297 22.7991 20.5124C22.8079 20.4948 22.8175 20.4779 22.8279 20.4615C22.8383 20.4455 22.8495 20.4294 22.8614 20.4142C22.8733 20.3989 22.8864 20.3842 22.8995 20.3701C22.913 20.3564 22.9271 20.3428 22.9418 20.3304C22.9564 20.318 22.9714 20.3063 22.9872 20.2955C23.003 20.2847 23.0191 20.2746 23.0357 20.2655C23.0522 20.2563 23.0695 20.2479 23.0868 20.2402C23.1041 20.2326 23.1222 20.2262 23.1399 20.2202C23.158 20.2146 23.1764 20.2098 23.1949 20.2058C23.2134 20.2021 23.2323 20.199 23.2507 20.1969C23.2884 20.1929 23.3269 20.1929 23.3642 20.1969C23.383 20.1989 23.4019 20.2021 23.4204 20.2058C23.4388 20.2098 23.4573 20.2146 23.4754 20.2202C23.493 20.2262 23.5112 20.2326 23.5285 20.2402C23.5457 20.2478 23.5627 20.2562 23.5792 20.2655C23.5961 20.2746 23.6123 20.2847 23.6281 20.2955C23.6434 20.3064 23.6589 20.318 23.6735 20.3304C23.6881 20.3428 23.7023 20.3564 23.7158 20.3701C23.7289 20.3842 23.742 20.3989 23.7539 20.4142C23.7658 20.4294 23.777 20.4454 23.7873 20.4615C23.7978 20.4779 23.8074 20.4948 23.8162 20.5124C23.825 20.5297 23.8331 20.5473 23.8404 20.5653C23.8477 20.5833 23.8539 20.6022 23.8596 20.621C23.865 20.6395 23.8696 20.6587 23.8731 20.678C23.877 20.6972 23.88 20.7169 23.8816 20.7365C23.8835 20.7561 23.8847 20.7758 23.8847 20.7954C23.8846 20.8151 23.8835 20.8351 23.8815 20.8547Z" fill="#333333"/>
</svg>
