<svg width="32" height="32" viewBox="0 0 32 32" fill="none" xmlns="http://www.w3.org/2000/svg">
<g opacity="0.6">
<path fill-rule="evenodd" clip-rule="evenodd" d="M16 31C24.2843 31 31 24.2843 31 16C31 7.71573 24.2843 1 16 1C7.71573 1 1 7.71573 1 16C1 24.2843 7.71573 31 16 31ZM16 32C24.8366 32 32 24.8366 32 16C32 7.16344 24.8366 0 16 0C7.16344 0 0 7.16344 0 16C0 24.8366 7.16344 32 16 32Z" fill="#333333"/>
<path d="M24 15.3847C24 14.0677 23.1633 12.9391 22 12.5002C22.4856 11.9562 22.7692 11.2482 22.7692 10.4617C22.7692 8.76233 21.3916 7.38473 19.6923 7.38473C19.4501 7.38473 19.226 7.40813 19 7.46104C18.7424 6.02203 17.5131 4.92257 16 4.92294C14.4869 4.92319 13.2576 6.02264 13 7.46166C12.774 7.40873 12.5498 7.38534 12.3077 7.38534C10.6084 7.38534 9.23077 8.76295 9.23077 10.4623C9.23077 11.2489 9.51441 11.9568 10 12.5008C8.83665 12.9397 8 14.0677 8 15.3847C8 17.0841 9.23077 18.4623 11.0769 18.4623H11.6923L14.1538 22.7699V25.8462C14.1538 26.4616 14.7692 27.077 15.3846 27.077H16.6154C17.2308 27.077 17.8461 26.4616 17.8461 25.8462V22.7693L20.3077 18.4623L21.1923 18.4439C22.7692 18.4617 24 16.991 24 15.3849V15.3847ZM14.1538 18.4616H17.8461L16.6154 20.9232H15.3846L14.1538 18.4616Z" fill="#333333"/>
</g>
</svg>
