<svg width="32" height="32" viewBox="0 0 32 32" fill="none" xmlns="http://www.w3.org/2000/svg">
<g opacity="0.6">
<path fill-rule="evenodd" clip-rule="evenodd" d="M15.84 31C24.0265 31 30.68 24.2938 30.68 16C30.68 7.70623 24.0265 1 15.84 1C7.65355 1 1 7.70623 1 16C1 24.2938 7.65355 31 15.84 31ZM15.84 32C24.5882 32 31.68 24.8366 31.68 16C31.68 7.16344 24.5882 0 15.84 0C7.09181 0 0 7.16344 0 16C0 24.8366 7.09181 32 15.84 32Z" fill="#333333"/>
<path d="M11.8594 17.9688H20.0625V20.7031H11.8594V17.9688Z" fill="#333333"/>
<path d="M11.8594 23.2422C11.8594 24.2114 12.6479 25 13.6172 25H18.3047C19.2739 25 20.0625 24.2114 20.0625 23.2422V21.875H11.8594V23.2422Z" fill="#333333"/>
<path d="M17.9141 5.58594C17.9141 5.26234 17.6517 5 17.3281 5H14.5938C14.2702 5 14.0078 5.26234 14.0078 5.58594V7.34375H17.9141V5.58594Z" fill="#333333"/>
<path d="M18.7965 12.4571C18.2357 11.9473 17.9141 11.2202 17.9141 10.4623V8.51562H14.0078V10.4623C14.0078 11.2202 13.6862 11.9473 13.1254 12.4571C12.3208 13.1885 11.8594 14.2316 11.8594 15.3189V16.7969H20.0625V15.3189C20.0625 14.2316 19.6011 13.1885 18.7965 12.4571Z" fill="#333333"/>
<path d="M24.1641 9.96094C24.1641 9.63734 23.9017 9.375 23.5781 9.375H21.2344C20.9108 9.375 20.6484 9.63734 20.6484 9.96094V11.3281H24.1641V9.96094Z" fill="#333333"/>
<path d="M11.2734 9.96094C11.2734 9.63734 11.0111 9.375 10.6875 9.375H8.34375C8.02016 9.375 7.75781 9.63734 7.75781 9.96094V11.3281H11.2734V9.96094Z" fill="#333333"/>
<path d="M21.2344 19.5312H25.9219V21.0938H21.2344V19.5312Z" fill="#333333"/>
<path d="M21.2344 23.2422C21.2344 23.9012 21.0155 24.51 20.6469 25C20.6474 25 20.6479 25 20.6484 25H24.1641C25.1333 25 25.9219 24.2114 25.9219 23.2422V22.2656H21.2344V23.2422Z" fill="#333333"/>
<path d="M6 19.5312H10.6875V21.0938H6V19.5312Z" fill="#333333"/>
<path d="M10.6875 22.2656H6V23.2422C6 24.2114 6.78855 25 7.75781 25H11.2734C11.2739 25 11.2745 25 11.275 25C10.9064 24.51 10.6875 23.9012 10.6875 23.2422V22.2656Z" fill="#333333"/>
<path d="M24.8463 15.3824C24.4127 14.997 24.1641 14.4432 24.1641 13.8631V12.5H20.6484V12.9631C21.0286 13.6823 21.2344 14.4907 21.2344 15.3189V18.3594H25.9219V17.7775C25.9219 16.863 25.5298 15.99 24.8463 15.3824Z" fill="#333333"/>
<path d="M7.75781 13.8631C7.75781 14.4432 7.50914 14.997 7.07555 15.3824C6.39203 15.99 6 16.863 6 17.7775V18.3594H10.6875V15.3189C10.6875 14.4907 10.8933 13.6823 11.2734 12.9631V12.5H7.75781V13.8631Z" fill="#333333"/>
</g>
</svg>
