<svg width="120" height="102" viewBox="0 0 120 102" fill="none" xmlns="http://www.w3.org/2000/svg">
<path d="M5.96738 101.683L2.37104 93.1911V101.683H0V89.4362H3.02347L6.61981 97.9124V89.4362H8.99085V101.683H5.96738ZM21.0847 101.683L20.2891 98.9897H16.4541L15.7539 101.683H13.0487L16.4859 89.4362H20.0981L23.7104 101.683H21.0847ZM18.3318 91.8285L17.0428 96.7875H19.6526L18.3318 91.8285ZM25.8109 91.7335V89.452H34.4198V91.7335H31.4759V101.683H28.7707V91.7335H25.8109ZM46.1955 100.717C45.3839 101.572 44.2859 102 42.9174 102C41.5489 102 40.4668 101.572 39.6393 100.717C38.8277 99.8611 38.414 98.7679 38.414 97.4371V89.4362H41.1192V97.0252C41.1192 98.7679 41.7239 99.6393 42.9174 99.6393C44.1268 99.6393 44.7156 98.7679 44.7156 97.0252V89.4362H47.4208V97.4371C47.4208 98.7679 47.007 99.8611 46.1955 100.717ZM55.25 97.4371V101.683H52.5448V89.4362H57.3027C58.528 89.4362 59.5147 89.7689 60.2626 90.4343C61.0105 91.0997 61.3924 91.9553 61.3924 93.0326V93.4446C61.3924 94.1892 61.2014 94.8546 60.8036 95.4567C60.4217 96.0587 59.9125 96.5182 59.3078 96.8509L62.204 101.699H59.0373L56.523 97.4529H55.25V97.4371ZM55.25 91.7335V95.1557H56.6503C57.3027 95.1557 57.7801 95.0131 58.1143 94.712C58.4485 94.411 58.6076 93.9991 58.6076 93.4446C58.6076 92.8742 58.4485 92.4306 58.1461 92.1612C57.8279 91.8761 57.3346 91.7335 56.6503 91.7335H55.25ZM73.2476 101.683L72.4519 98.9897H68.6169L67.9167 101.683H65.2115L68.6487 89.4362H72.261L75.8732 101.683H73.2476ZM70.4787 91.8285L69.1898 96.7875H71.7995L70.4787 91.8285ZM87.1556 99.4017V101.683H79.947V89.4362H82.6522V99.3858H87.1556V99.4017ZM91.7067 101.683V89.4362H94.4119V101.683H91.7067ZM99.3767 92.795C99.3767 91.7335 99.7905 90.8621 100.602 90.1808C101.414 89.4837 102.432 89.151 103.641 89.151C104.978 89.151 106.028 89.5312 106.808 90.2917C107.588 91.0522 107.986 92.0503 107.986 93.302H105.201C105.201 92.0979 104.676 91.5117 103.641 91.5117C103.148 91.5117 102.766 91.6226 102.496 91.8602C102.225 92.0979 102.082 92.4147 102.082 92.8425C102.082 93.1118 102.193 93.3337 102.416 93.5396C102.639 93.7297 102.925 93.8882 103.291 93.9991C103.657 94.11 104.039 94.2367 104.469 94.3793C104.899 94.5219 105.328 94.6803 105.758 94.8705C106.188 95.0606 106.585 95.2982 106.935 95.5676C107.286 95.8369 107.588 96.2013 107.811 96.6608C108.033 97.1202 108.145 97.6589 108.145 98.2768C108.145 99.3858 107.731 100.289 106.888 100.97C106.044 101.667 105.026 102 103.801 102C102.384 102 101.254 101.651 100.411 100.938C99.5518 100.226 99.138 99.1957 99.138 97.8649H101.923C101.923 98.4352 102.082 98.8789 102.4 99.1957C102.718 99.5126 103.196 99.6552 103.801 99.6552C104.31 99.6552 104.708 99.5284 104.994 99.2908C105.296 99.0531 105.44 98.7046 105.44 98.261C105.44 97.9599 105.328 97.7064 105.105 97.5005C104.883 97.2945 104.596 97.1202 104.23 97.0093C103.864 96.8984 103.482 96.7717 103.053 96.6291C102.623 96.4865 102.193 96.3281 101.764 96.1379C101.334 95.9478 100.936 95.726 100.586 95.4725C100.236 95.219 99.9337 94.8546 99.7109 94.411C99.4881 93.9357 99.3767 93.397 99.3767 92.795ZM111.391 91.7335V89.452H120V91.7335H117.056V101.683H114.351V91.7335H111.391Z" fill="#333333"/>
<path d="M40.8486 50.5404C36.9817 50.5404 33.3058 51.3009 29.9323 52.6793C36.0428 62.8507 47.2138 69.6634 59.9919 69.6634C72.7701 69.6634 83.9569 62.8508 90.0675 52.6635C86.694 51.2851 83.018 50.5087 79.1353 50.5087C73.1679 50.5087 67.6143 52.3307 63.0313 55.436V33.9049L64.734 30.958L66.0707 30.3876L72.0062 32.4631L74.5046 31.4016L68.569 29.342L73.9954 27.0447L77.2575 28.1696L79.7877 32.5265L81.6654 33.1602L79.1512 28.8191L86.0256 31.1956L88.5399 30.0708L76.5892 25.9515L84.7048 22.5135L94.73 30.4827C94.6027 29.4687 94.4277 28.4706 94.2208 27.4883L86.8213 21.6104L91.4997 19.63C91.1337 18.8853 90.7518 18.1565 90.338 17.4436L79.2148 22.1491L80.3287 18.5368L87.3623 13.1025C86.869 12.4846 86.3439 11.8825 85.8187 11.2963L81.57 14.6076L83.3522 8.8723C82.8589 8.42869 82.3497 8.00091 81.8246 7.58899L79.0398 16.5722L78.3714 17.095L75.3639 12.643L79.3421 5.79868C78.3714 5.16495 77.3848 4.5629 76.3505 4.02422L73.8681 8.31778L69.0464 1.17241C68.0439 0.903073 67.0414 0.681266 66.007 0.506988L72.6746 10.3774L69.3169 16.1603L64.3998 0.269337C62.9836 0.0950599 61.5355 0 60.0715 0L56.7298 4.76886L58.1938 0.0316863C57.3185 0.0792165 56.4433 0.158432 55.584 0.253493L50.6669 16.1444L47.3093 10.3616L53.9768 0.491144C52.9425 0.665421 51.9399 0.887231 50.9374 1.15657L46.1158 8.30194L43.6334 4.00838C42.599 4.54706 41.6124 5.1491 40.6417 5.78284L44.62 12.6272L41.6124 17.0792L40.9441 16.5563L38.1593 7.57314C37.6341 7.98507 37.1408 8.41284 36.6316 8.85646L38.4139 14.5918L34.1492 11.2963C33.6082 11.8825 33.0989 12.4846 32.6056 13.1025L39.6392 18.5368L40.7531 22.1491L29.6299 17.4436C29.2162 18.1565 28.8343 18.8853 28.4683 19.63L33.1467 21.6104L25.7471 27.4883C25.5403 28.4706 25.3652 29.4687 25.2379 30.4827L35.2631 22.5135L43.3787 25.9515L31.4281 30.0708L33.9423 31.1956L40.8167 28.8191L38.3025 33.1602L40.1802 32.5265L42.7104 28.1696L45.9726 27.0447L51.3989 29.342L45.4634 31.4175L47.9617 32.479L53.8972 30.4035L55.2339 30.9738L56.9366 33.9207V55.4836C52.3696 52.3624 46.816 50.5404 40.8486 50.5404ZM59.9919 32.2255L58.146 29.0409L58.5916 26.8387L59.2122 26.3317L62.0606 28.6449L59.9919 32.2255ZM77.0188 23.0997L71.4016 25.4762L77.8145 20.5014L77.0188 23.0997ZM74.1704 14.6868L76.6688 18.3942L68.2349 24.9217L74.1704 14.6868ZM63.0631 26.9338L60.7717 25.0643L67.1528 19.8518L63.0631 26.9338ZM63.1268 4.37278L66.3094 14.671L62.2357 8.7614L63.1268 4.37278ZM66.0866 17.5703L59.3554 23.0521L61.7424 11.2805L66.0866 17.5703ZM55.4885 8.74555L61.4718 0.19012L59.9283 7.81079L53.6904 14.6076L55.4885 8.74555ZM42.965 23.0997L42.1694 20.5172L48.5823 25.492L42.965 23.0997ZM43.3151 18.3942L45.8134 14.6868L51.7331 24.9058L43.3151 18.3942ZM56.3001 25.8564L52.3059 18.9645L59.2122 11.4865L56.3001 25.8564Z" fill="#167223"/>
</svg>
