<svg width="46" height="46" viewBox="0 0 46 46" fill="none" xmlns="http://www.w3.org/2000/svg">
<path d="M38.3333 13.3333H17.25C16.1958 13.3333 15.3333 12.4708 15.3333 11.4167C15.3333 10.3625 16.1958 9.5 17.25 9.5H38.3333C39.3875 9.5 40.25 10.3625 40.25 11.4167C40.25 12.4708 39.3875 13.3333 38.3333 13.3333Z" fill="#333333"/>
<path d="M7.66667 22.9167H38.3333C39.3875 22.9167 40.25 22.0542 40.25 21C40.25 19.9458 39.3875 19.0833 38.3333 19.0833H7.66667C6.6125 19.0833 5.75 19.9458 5.75 21C5.75 22.0542 6.6125 22.9167 7.66667 22.9167Z" fill="#333333"/>
<path fill-rule="evenodd" clip-rule="evenodd" d="M36.2451 36.1807C35.3076 36.1807 34.5459 35.9007 33.96 35.3408C33.374 34.7809 33.0322 34.0111 32.9346 33.0312H31.9043V36H30.4297V28.9541H31.9043V31.8154H32.9443C33.0583 30.8682 33.4066 30.1243 33.9893 29.584C34.5752 29.0436 35.3271 28.7734 36.2451 28.7734C37.2705 28.7734 38.0827 29.1055 38.6816 29.7695C39.2806 30.4336 39.5801 31.3353 39.5801 32.4746C39.5801 33.6139 39.2806 34.5173 38.6816 35.1846C38.0859 35.8486 37.2738 36.1807 36.2451 36.1807ZM36.2402 30.0234C35.6836 30.0234 35.2376 30.2448 34.9023 30.6875C34.5671 31.1302 34.3994 31.7259 34.3994 32.4746C34.3994 33.2233 34.5654 33.8206 34.8975 34.2666C35.2295 34.7093 35.6771 34.9307 36.2402 34.9307C36.8001 34.9307 37.2461 34.7093 37.5781 34.2666C37.9102 33.8206 38.0762 33.2233 38.0762 32.4746C38.0762 31.7259 37.9102 31.1302 37.5781 30.6875C37.2461 30.2448 36.8001 30.0234 36.2402 30.0234Z" fill="#333333"/>
<path d="M14.1277 36H12.8143V31.2441H12.7752L10.8611 35.9316H9.9334L8.01934 31.2441H7.98027V36H6.6668V28.9541H8.37578L10.3777 33.9492H10.4168L12.4188 28.9541H14.1277V36Z" fill="#333333"/>
<path d="M20.6652 34.7793V36H15.9973V28.9541H20.6652V30.1699H17.4719V31.8691H20.4846V33.002H17.4719V34.7793H20.6652Z" fill="#333333"/>
<path d="M27.0855 36H28.5602V28.9541H27.0855V31.8154H23.9117V28.9541H22.4371V36H23.9117V33.0312H27.0855V36Z" fill="#333333"/>
</svg>
