<svg width="28" height="28" viewBox="0 0 28 28" fill="none" xmlns="http://www.w3.org/2000/svg">
<rect width="28" height="28" rx="14" fill="#333333"/>
<path d="M11.0842 14C11.0842 12.3892 12.3896 11.0831 14.0004 11.0831C15.6111 11.0831 16.9173 12.3892 16.9173 14C16.9173 15.6108 15.6111 16.9169 14.0004 16.9169C12.3896 16.9169 11.0842 15.6108 11.0842 14ZM9.50735 14C9.50735 16.4815 11.5189 18.493 14.0004 18.493C16.4819 18.493 18.4934 16.4815 18.4934 14C18.4934 11.5185 16.4819 9.50698 14.0004 9.50698C11.5189 9.50698 9.50735 11.5185 9.50735 14ZM17.6213 9.32883C17.6212 9.5365 17.6827 9.73953 17.798 9.91225C17.9133 10.085 18.0772 10.2196 18.269 10.2992C18.4609 10.3787 18.672 10.3996 18.8757 10.3592C19.0794 10.3187 19.2665 10.2188 19.4134 10.072C19.5603 9.92522 19.6604 9.73817 19.701 9.53451C19.7416 9.33084 19.7209 9.11971 19.6415 8.92782C19.5621 8.73593 19.4276 8.57188 19.255 8.45644C19.0823 8.341 18.8793 8.27933 18.6717 8.27925H18.6713C18.3929 8.27938 18.126 8.38999 17.9291 8.58678C17.7322 8.78358 17.6215 9.05047 17.6213 9.32883ZM10.4654 21.1223C9.61228 21.0834 9.1486 20.9413 8.84046 20.8213C8.43194 20.6623 8.14046 20.4728 7.834 20.1668C7.52754 19.8608 7.33784 19.5696 7.1795 19.161C7.05938 18.853 6.91728 18.3892 6.8785 17.5361C6.83608 16.6138 6.82761 16.3367 6.82761 14.0001C6.82761 11.6634 6.83678 11.3871 6.8785 10.464C6.91735 9.61093 7.0605 9.14802 7.1795 8.83911C7.33854 8.43059 7.52796 8.13911 7.834 7.83265C8.14004 7.52619 8.43124 7.33649 8.84046 7.17815C9.14846 7.05803 9.61228 6.91593 10.4654 6.87715C11.3877 6.83473 11.6647 6.82626 14.0004 6.82626C16.336 6.82626 16.6133 6.83543 17.5364 6.87715C18.3895 6.916 18.8524 7.05915 19.1613 7.17815C19.5698 7.33649 19.8613 7.52661 20.1678 7.83265C20.4742 8.13869 20.6632 8.43059 20.8223 8.83911C20.9424 9.14711 21.0845 9.61093 21.1233 10.464C21.1657 11.3871 21.1742 11.6634 21.1742 14.0001C21.1742 16.3367 21.1657 16.613 21.1233 17.5361C21.0844 18.3892 20.9416 18.8529 20.8223 19.161C20.6632 19.5696 20.4738 19.861 20.1678 20.1668C19.8617 20.4726 19.5698 20.6623 19.1613 20.8213C18.8533 20.9414 18.3895 21.0835 17.5364 21.1223C16.6141 21.1647 16.337 21.1732 14.0004 21.1732C11.6637 21.1732 11.3874 21.1647 10.4654 21.1223ZM10.3929 5.30299C9.46143 5.34541 8.82492 5.49311 8.26905 5.70941C7.69337 5.93278 7.20603 6.23245 6.71904 6.71867C6.23205 7.20489 5.93315 7.693 5.70978 8.26868C5.49348 8.8249 5.34578 9.46106 5.30336 10.3926C5.26024 11.3255 5.25037 11.6238 5.25037 14C5.25037 16.3762 5.26024 16.6745 5.30336 17.6075C5.34578 18.539 5.49348 19.1751 5.70978 19.7313C5.93315 20.3067 6.23212 20.7953 6.71904 21.2813C7.20596 21.7673 7.69337 22.0666 8.26905 22.2906C8.82597 22.5069 9.46143 22.6546 10.3929 22.697C11.3264 22.7394 11.6241 22.75 14.0004 22.75C16.3766 22.75 16.6749 22.7401 17.6078 22.697C18.5394 22.6546 19.1755 22.5069 19.7317 22.2906C20.307 22.0666 20.7947 21.7675 21.2817 21.2813C21.7687 20.7951 22.067 20.3067 22.291 19.7313C22.5073 19.1751 22.6557 18.5389 22.6974 17.6075C22.7398 16.6738 22.7497 16.3762 22.7497 14C22.7497 11.6238 22.7398 11.3255 22.6974 10.3926C22.655 9.46099 22.5073 8.82455 22.291 8.26868C22.067 7.69335 21.7679 7.20566 21.2817 6.71867C20.7955 6.23168 20.307 5.93278 19.7324 5.70941C19.1755 5.49311 18.5393 5.34471 17.6085 5.30299C16.6756 5.26057 16.3773 5.25 14.0011 5.25C11.6248 5.25 11.3264 5.25987 10.3929 5.30299Z" fill="white"/>
</svg>
