<svg width="28" height="28" viewBox="0 0 28 28" fill="none" xmlns="http://www.w3.org/2000/svg">
<rect width="28" height="28" rx="14" fill="#333333"/>
<path fill-rule="evenodd" clip-rule="evenodd" d="M21.4957 14.0989C21.3154 13.4291 20.7874 12.9011 20.1177 12.7208C18.8941 12.3859 14 12.3859 14 12.3859C14 12.3859 9.10585 12.3859 7.88232 12.7079C7.22547 12.8882 6.68454 13.4291 6.50423 14.0989C6.18225 15.3224 6.18225 17.8596 6.18225 17.8596C6.18225 17.8596 6.18225 20.4097 6.50423 21.6204C6.68454 22.2901 7.2126 22.8182 7.88232 22.9985C9.11873 23.3333 14 23.3333 14 23.3333C14 23.3333 18.8941 23.3333 20.1177 23.0113C20.7874 22.831 21.3154 22.303 21.4957 21.6333C21.8177 20.4097 21.8177 17.8725 21.8177 17.8725C21.8177 17.8725 21.8306 15.3224 21.4957 14.0989ZM18.3031 19.3263C18.3031 19.6129 18.3115 19.832 18.3284 19.9753C18.3452 20.1186 18.379 20.2282 18.438 20.2872C18.4885 20.3546 18.5728 20.3883 18.6908 20.3883C18.8426 20.3883 18.9437 20.3293 19.0027 20.2113C19.0617 20.0933 19.087 19.8994 19.0954 19.6213L19.9636 19.6719C19.972 19.714 19.972 19.7646 19.972 19.832C19.972 20.245 19.8625 20.5569 19.6349 20.7592C19.4073 20.9615 19.087 21.0627 18.674 21.0627C18.1767 21.0627 17.8311 20.9025 17.6288 20.5906C17.4265 20.2788 17.3253 19.7983 17.3253 19.1408V18.3569C17.3253 17.6826 17.4265 17.1937 17.6372 16.8818C17.8479 16.57 18.2019 16.4182 18.6993 16.4182C19.0449 16.4182 19.3146 16.4857 19.5 16.6121C19.6855 16.7386 19.8119 16.9408 19.8878 17.2021C19.9636 17.4719 19.9973 17.8428 19.9973 18.3148V19.0818H18.3031V19.3263ZM18.4295 17.2106C18.379 17.278 18.3452 17.3792 18.3284 17.5225C18.3115 17.6657 18.3031 17.8849 18.3031 18.1799V18.5002H19.0449V18.1799C19.0449 17.8933 19.0364 17.6742 19.0196 17.5225C19.0027 17.3707 18.9606 17.2696 18.91 17.2106C18.8594 17.1516 18.7751 17.1179 18.674 17.1179C18.556 17.1094 18.4801 17.1431 18.4295 17.2106ZM13.4311 21.0121V16.5194H12.4196V20.0849C12.3859 20.1692 12.3269 20.2366 12.2426 20.2872C12.1583 20.3462 12.074 20.3715 11.9897 20.3715C11.8886 20.3715 11.8127 20.3293 11.7705 20.245C11.7284 20.1607 11.7031 20.0175 11.7031 19.8152V16.5194H10.6916V19.8742C10.6916 20.2956 10.7591 20.5991 10.9024 20.7929C11.0456 20.9868 11.2648 21.0879 11.5598 21.0879C11.9897 21.0879 12.3184 20.8772 12.5292 20.4642H12.5544L12.6387 21.0121H13.4311ZM10.9951 15.6765H9.992V21.0037H9.0058V15.6765H8.00274V14.8589H10.9951V15.6765ZM16.4824 16.6205C16.6173 16.747 16.7184 16.9493 16.7774 17.2359C16.8364 17.514 16.8617 17.9102 16.8701 18.4244V19.1324C16.8701 19.7983 16.7858 20.2956 16.6257 20.6075C16.4655 20.9194 16.2211 21.0795 15.8755 21.0795C15.6816 21.0795 15.5131 21.0289 15.3529 20.9446C15.1928 20.8519 15.0747 20.7339 14.9989 20.5822H14.9736L14.8725 21.0037H14.038V14.6313H15.0157V16.9998H15.0242C15.1085 16.8313 15.2349 16.688 15.3951 16.5868C15.5552 16.4772 15.7322 16.4267 15.9177 16.4267C16.1537 16.4267 16.3475 16.4941 16.4824 16.6205ZM15.8081 19.832C15.8334 19.6466 15.8502 19.3937 15.8502 19.065H15.8587V18.4749C15.8587 18.1293 15.8502 17.8596 15.8249 17.6657C15.7996 17.4803 15.7659 17.3454 15.7069 17.2611C15.6564 17.1853 15.5721 17.1431 15.4709 17.1431C15.3782 17.1431 15.2855 17.1853 15.2012 17.2611C15.1169 17.3454 15.0579 17.4466 15.0242 17.5646V20.1102C15.0663 20.186 15.1253 20.245 15.1928 20.2872C15.2602 20.3293 15.3361 20.3462 15.4203 20.3462C15.5215 20.3462 15.6058 20.304 15.6732 20.2282C15.7322 20.1523 15.7828 20.0175 15.8081 19.832Z" fill="white"/>
<path d="M13.0518 10.6851C12.8495 10.5502 12.7062 10.3395 12.6219 10.0445C12.5376 9.75786 12.4955 9.37013 12.4955 8.8981V8.24906C12.4955 7.76861 12.546 7.38087 12.6387 7.08585C12.7399 6.79083 12.8916 6.58011 13.0939 6.44524C13.3046 6.31038 13.5744 6.24295 13.9115 6.24295C14.2403 6.24295 14.51 6.31038 14.7123 6.44524C14.9146 6.58011 15.0579 6.79926 15.1506 7.08585C15.2433 7.37244 15.2939 7.76018 15.2939 8.24906V8.8981C15.2939 9.37856 15.2518 9.75786 15.159 10.0529C15.0663 10.3395 14.923 10.5586 14.7207 10.6935C14.5184 10.8284 14.2403 10.8958 13.8947 10.8958C13.5407 10.8874 13.2541 10.8199 13.0518 10.6851ZM14.1897 9.97702C14.2487 9.83373 14.274 9.58928 14.274 9.26055V7.86133C14.274 7.54102 14.2487 7.30501 14.1897 7.15328C14.1307 7.00156 14.038 6.93413 13.8947 6.93413C13.7598 6.93413 13.6587 7.00999 13.6081 7.15328C13.5491 7.30501 13.5238 7.54102 13.5238 7.86133V9.26055C13.5238 9.58928 13.5491 9.83373 13.6081 9.97702C13.6587 10.1203 13.7598 10.1962 13.9031 10.1962C14.038 10.1962 14.1307 10.1287 14.1897 9.97702Z" fill="white"/>
<path d="M10.5905 8.82224L9.44412 4.66672H10.4472L10.8518 6.5464C10.9529 7.01 11.0288 7.40616 11.0794 7.7349H11.1046C11.1384 7.49888 11.2142 7.11115 11.3322 6.55483L11.7537 4.66672H12.7567L11.5935 8.82224V10.8115H10.5989V8.82224H10.5905Z" fill="white"/>
<path d="M18.556 6.32724V10.8199H17.7636L17.6793 10.272H17.654C17.4433 10.6851 17.1146 10.8958 16.6847 10.8958C16.3897 10.8958 16.1705 10.7946 16.0272 10.6008C15.8839 10.4069 15.8165 10.1035 15.8165 9.682V6.32724H16.828V9.623C16.828 9.8253 16.8533 9.96859 16.8954 10.0529C16.9376 10.1372 17.0134 10.1793 17.1146 10.1793C17.1989 10.1793 17.2832 10.154 17.3675 10.095C17.4518 10.0445 17.5108 9.97702 17.5445 9.89273V6.32724H18.556Z" fill="white"/>
</svg>
